<svg xmlns="http://www.w3.org/2000/svg" width="1024" height="1024" preserveAspectRatio="none" style="display: block;" version="1.1" viewBox="0 0 2048 2048"><defs><linearGradient id="a" x1="646.563" x2="405.821" y1="708.852" y2="863.387" gradientUnits="userSpaceOnUse"><stop class="stop0" offset="0" stop-color="rgb(32,98,88)" stop-opacity="1"/><stop class="stop1" offset="1" stop-color="rgb(52,123,114)" stop-opacity="1"/></linearGradient></defs><path fill="rgb(117,197,173)" d="M518.287 606.038c-.955-8.5-13.06-20.449-18.799-27.629a4276 4276 0 0 0-43.457-53.421l-106.299-129.338c-15.409-18.492-30.762-36.927-45.758-55.756-19.143-24.038-1.318-27.095 19.84-21.943 29.238 7.12 58.437 14.589 87.629 21.926l188.845 47.394a17490 17490 0 0 1 203.416 51.02c26.035 6.585 106.906 23.565 124.57 36.832 15.968 10.739 35.826 42.873 47.536 59.754l65.29 95.187c46.01 62.678 87.95 129.357 133.52 192.449 7.05 9.761 14.33 20.319 20.75 30.506l73.77 107.32c12.29 17.929 36.23 54.671 50.71 68.331l1.41 1.34c.54.66 2.11 2.76 2.71 3.15 38.3 59.56 83.78 124.12 119.99 184.48 8.51 12.77 25.25 37.67 31.77 50.53-19.29 16.86-46.71 25.82-70.35 35.71a4866 4866 0 0 1-93.43 38.59c-13.94 6.95-34.55 14.52-49.59 20.8-35.74 13.57-83.35 36.49-119.76 52.46l-254.766 110.85c-27.407 11.63-63.66 29.27-90.625 38.86-16.936 8.11-35.352 14.95-52.734 22.79-6.032 2.38-15.535 7.35-21.79 10.21a3244 3244 0 0 1-42.298 18.68c-17.899 7.76-49.982 23.96-43.444-12.48 2.391-13.32 7.621-29.14 11.158-42.55l23.565-90.01 79.719-297.13c5.94-22.04 26.155-89.19 25.491-107.81-.966-10.98-2.68-19.87-10.751-28.14-17.339-17.75-38.972-34.16-58.19-50.011l-93.868-78.509-304.053-257.98-57.701-49.118c-9.154-7.824-42.799-33.914-41.24-44.407 7.409-5.951 25.472-1.738 34.662.058 88.613 17.318 177.008 36.747 265.7 53.066 2.034.374 4.731-3.455 5.997-5z"/><path fill="rgb(43,113,102)" d="M1118.58 975.541c3.4-6.551 19.11-29.751 24.16-37.7 17.21-27.069 34.53-58.917 52.63-84.822l73.77 107.32c12.29 17.929 36.23 54.671 50.71 68.331l1.41 1.34c.54.66 2.11 2.76 2.71 3.15 38.3 59.56 83.78 124.12 119.99 184.48 8.51 12.77 25.25 37.67 31.77 50.53-19.29 16.86-46.71 25.82-70.35 35.71a4866 4866 0 0 1-93.43 38.59c-13.94 6.95-34.55 14.52-49.59 20.8-35.74 13.57-83.35 36.49-119.76 52.46l-254.766 110.85c-27.407 11.63-63.66 29.27-90.625 38.86-16.936 8.11-35.352 14.95-52.734 22.79-6.032 2.38-15.535 7.35-21.79 10.21a3244 3244 0 0 1-42.298 18.68c-17.899 7.76-49.982 23.96-43.444-12.48 2.391-13.32 7.621-29.14 11.158-42.55l23.565-90.01 79.719-297.13c5.94-22.04 26.155-89.19 25.491-107.81.464-6.37.207-8.23 2.656-14.32 6.052-1.06 94.522 43.35 102.234 50.12l.608-1.99c2.611-7.62 10.005-34.76 13.3-38.37l-.449-.61c1.539-8.4 7.999-26.86 11.074-35.92 5.784-17.05 11.497-36.393 18.022-52.938 11.083-24.832 19.573-64.062 31.166-90.12 41.431 27.754 83.573 54.602 125.433 81.759 3.6 2.334 8.79 5.165 13.06 4.248l.99-.201 1.83 4.295.56 1.274c7.56-.671 13.72.033 21.22 1.174"/><path fill="rgb(197,246,212)" d="M1118.58 975.541c3.4-6.551 19.11-29.751 24.16-37.7 17.21-27.069 34.53-58.917 52.63-84.822l73.77 107.32c12.29 17.929 36.23 54.671 50.71 68.331l1.41 1.34c.54.66 2.11 2.76 2.71 3.15 38.3 59.56 83.78 124.12 119.99 184.48 8.51 12.77 25.25 37.67 31.77 50.53-19.29 16.86-46.71 25.82-70.35 35.71a4866 4866 0 0 1-93.43 38.59c-13.94 6.95-34.55 14.52-49.59 20.8-7.76-19.92-22.23-45.62-28.13-65.27-1.47-2.56-2.41-4.02-4.1-6.44-.1-2.69.01-2.17 1.23-4.61-6.2-18.46-16.85-37.16-24.26-54.93-10.06-25-21.03-49.5-30.6-74.7-2.04-5.39-6.92-5.08-8.1-12.55-.78-4.95-13.92-38.26-15.67-39.84-4.1-5.27-8.76-19.72-11.88-26.46-10.28-22.26-20.02-51.36-31.09-72.77-4.35-9.846-7.93-21.023-12.4-31.333 7.56-.671 13.72.033 21.22 1.174"/><path fill="rgb(151,221,186)" d="M1443.96 1217.64c8.51 12.77 25.25 37.67 31.77 50.53-19.29 16.86-46.71 25.82-70.35 35.71a4866 4866 0 0 1-93.43 38.59c-13.94 6.95-34.55 14.52-49.59 20.8-7.76-19.92-22.23-45.62-28.13-65.27-1.47-2.56-2.41-4.02-4.1-6.44 10.64-2.93 31.78-11.09 43.44-15.09l120.38-42.37c13.16-4.53 37.18-14.24 50.01-16.46"/><path fill="rgb(79,159,139)" d="m1234.23 1298 51.4 29.28c6.58 3.72 20.73 11.04 26.32 15.19-13.94 6.95-34.55 14.52-49.59 20.8-7.76-19.92-22.23-45.62-28.13-65.27"/><path fill="rgb(151,221,186)" d="M1118.58 975.541c3.4-6.551 19.11-29.751 24.16-37.7 17.21-27.069 34.53-58.917 52.63-84.822l73.77 107.32c12.29 17.929 36.23 54.671 50.71 68.331-8.66.81-177.99-46.285-201.27-53.129"/><path fill="rgb(117,197,173)" d="M779.532 1052.82c6.052-1.06 94.522 43.35 102.234 50.12l-99.989 343.67c-10.67 41.43-23.213 82.53-33.105 124.21-1.369 5.77-3.104 11.61-4.197 17.41-6.032 2.38-15.535 7.35-21.79 10.21a3244 3244 0 0 1-42.298 18.68c-17.899 7.76-49.982 23.96-43.444-12.48 2.391-13.32 7.621-29.14 11.158-42.55l23.565-90.01 79.719-297.13c5.94-22.04 26.155-89.19 25.491-107.81.464-6.37.207-8.23 2.656-14.32m175.955-169.828c41.431 27.754 83.573 54.602 125.433 81.759 3.6 2.334 8.79 5.165 13.06 4.248l.99-.201 1.83 4.295.56 1.274c4.47 10.31 8.05 21.487 12.4 31.333 11.07 21.41 20.81 50.51 31.09 72.77 3.12 6.74 7.78 21.19 11.88 26.46l-93.36.01-4.92-.01c-13.14 24.28-26.54 48.81-41.48 72.02-.68-.1-30.805-16.43-36.805-18.82-.833-1.08-8.521-8.17-9.991-9.56-5.558-11.82-24.538-33.15-33.56-43.64-5.507-4.59-30.533-34.79-36.94-42.35l-.449-.61c1.539-8.4 7.999-26.86 11.074-35.92 5.784-17.05 11.497-36.393 18.022-52.938 11.083-24.832 19.573-64.062 31.166-90.12"/><path fill="rgb(15,69,61)" d="M955.487 882.992c41.431 27.754 83.573 54.602 125.433 81.759 3.6 2.334 8.79 5.165 13.06 4.248l.99-.201 1.83 4.295c-4.25 1.489-168.843 1.059-172.479.019 11.083-24.832 19.573-64.062 31.166-90.12m-22.873 221.938c39.34-.27 82.716-1.08 121.836 0-13.14 24.28-26.54 48.81-41.48 72.02-.68-.1-30.805-16.43-36.805-18.82-.833-1.08-8.521-8.17-9.991-9.56-5.558-11.82-24.538-33.15-33.56-43.64"/><path fill="rgb(151,221,186)" d="M1109.76 1005.7c11.07 21.41 20.81 50.51 31.09 72.77 3.12 6.74 7.78 21.19 11.88 26.46l-93.36.01c-2.78-.96-1.74-.09-3.54-2.15 4.89-10.64 17.48-31.56 23.68-42.76 8.83-15.94 20.56-39.76 30.25-54.33"/><path fill="rgb(43,113,102)" d="M882.374 1100.95c2.611-7.62 10.005-34.76 13.3-38.37 6.407 7.56 31.433 37.76 36.94 42.35 9.022 10.49 28.002 31.82 33.56 43.64 1.47 1.39 9.158 8.48 9.991 9.56 6 2.39 36.125 18.72 36.805 18.82-4.76 8.48-9.6 16.92-14.503 25.32-7.009 15.67-21.752 38.5-30.675 54.37l-67.971 121.31c-2.968 5.31-19.71 34.05-20.468 37.8l-2.222.77c-12.449 4.33-86.427 33.14-93.534 31.5l-1.82-1.41 99.989-343.67z"/><path fill="rgb(32,98,90)" d="M882.374 1100.95c2.611-7.62 10.005-34.76 13.3-38.37 6.407 7.56 31.433 37.76 36.94 42.35 9.022 10.49 28.002 31.82 33.56 43.64-7.371-2.58-82.854-46.15-83.8-47.62m93.791 57.18c6 2.39 36.125 18.72 36.805 18.82-4.76 8.48-9.6 16.92-14.503 25.32-1.161-18.18-19.232-29.45-22.302-44.14"/><path fill="rgb(79,159,139)" d="M1012.97 1176.95c8.7 1.27 60.16 31.71 71.22 38.08l81.54 46.76c16.28 9.46 35.8 21.55 52.07 30.3-7.3 4.54-25.59 10.72-34.37 13.91l-66 23.58a17973 17973 0 0 1-238.077 86.17c.758-3.75 17.5-32.49 20.468-37.8l67.971-121.31c8.923-15.87 23.666-38.7 30.675-54.37 4.903-8.4 9.743-16.84 14.503-25.32"/><path fill="rgb(32,98,90)" d="m781.777 1446.61 1.82 1.41c7.107 1.64 81.085-27.17 93.534-31.5-1.531 6.12-16.917 32.52-20.604 39.17l-51.445 92.34c-.458.83-8.869 17.81-7.7 16.3l-.173 1.11c-16.936 8.11-35.352 14.95-52.734 22.79 1.093-5.8 2.828-11.64 4.197-17.41 9.892-41.68 22.435-82.78 33.105-124.21"/><path fill="url(#a)" d="M776.876 1067.14c-.966-10.98-2.68-19.87-10.751-28.14-17.339-17.75-38.972-34.16-58.19-50.011l-93.868-78.509-304.053-257.98-57.701-49.118c-9.154-7.824-42.799-33.914-41.24-44.407 7.409-5.951 25.472-1.738 34.662.058 88.613 17.318 177.008 36.747 265.7 53.066 2.034.374 4.731-3.455 5.997-5l.855-1.061c5.225 8.101 43.216 54.444 50.088 60.056 18.242 6.628 51.951 25.871 70.117 35.737a7216 7216 0 0 1 121.172 66.792l50.168 27.825c5.338 2.979 28.515 15.169 30.474 19.333l.316-.418c8.139 1.987 97.948 57.131 112.193 66.267 1.954 1.253 0 .259 2.672 1.362-11.593 26.058-20.083 65.288-31.166 90.12-6.525 16.545-12.238 35.888-18.022 52.938-3.075 9.06-9.535 27.52-11.074 35.92l.449.61c-3.295 3.61-10.689 30.75-13.3 38.37l-.608 1.99c-7.712-6.77-96.182-51.18-102.234-50.12-2.449 6.09-2.192 7.95-2.656 14.32"/><path fill="rgb(151,221,186)" d="M840.622 815.363c8.139 1.987 97.948 57.131 112.193 66.267 1.954 1.253 0 .259 2.672 1.362-11.593 26.058-20.083 65.288-31.166 90.12-6.525 16.545-12.238 35.888-18.022 52.938-3.075 9.06-9.535 27.52-11.074 35.92l.449.61c-3.295 3.61-10.689 30.75-13.3 38.37l-.608 1.99c-7.712-6.77-96.182-51.18-102.234-50.12 9.72-31.13 18.011-67.357 26.53-99.228l-.149-.818a10623 10623 0 0 1 34.393-136.993z"/><path fill="rgb(79,159,139)" d="M806.062 953.592c30.276 34.257 59.231 73.258 89.163 108.378l.449.61c-3.295 3.61-10.689 30.75-13.3 38.37l-.608 1.99c-7.712-6.77-96.182-51.18-102.234-50.12 9.72-31.13 18.011-67.357 26.53-99.228m-237.687-287.498c18.242 6.628 51.951 25.871 70.117 35.737a7216 7216 0 0 1 121.172 66.792l50.168 27.825c5.338 2.979 28.515 15.169 30.474 19.333a10623 10623 0 0 0-34.393 136.993c-15.497-19.272-34.293-40.556-50.419-59.926l-120.871-145.496-40.619-48.674c-7.43-8.89-20.044-23.251-25.629-32.584"/><path fill="rgb(117,197,173)" d="M1041.1 630.064c46.01 62.678 87.95 129.357 133.52 192.449 7.05 9.761 14.33 20.319 20.75 30.506-18.1 25.905-35.42 57.753-52.63 84.822-5.05 7.949-20.76 31.149-24.16 37.7-7.5-1.141-13.66-1.845-21.22-1.174l-.56-1.274-1.83-4.295-.99.201c-4.27.917-9.46-1.914-13.06-4.248-41.86-27.157-84.002-54.005-125.433-81.759-.155-13.605 42.262-126.247 48.473-147.128 10.28-21.603 16.49-50.363 25.77-72.966 3.97-9.647 8.67-22.867 11.37-32.834"/><path fill="rgb(32,98,90)" d="m1003.96 735.864 2.29.93c29.72 75.806 60.86 155.611 88.72 232.004l-.99.201c-4.27.917-9.46-1.914-13.06-4.248-41.86-27.157-84.002-54.005-125.433-81.759-.155-13.605 42.262-126.247 48.473-147.128"/><path fill="rgb(197,246,212)" d="M928.274 475.123c15.968 10.739 35.826 42.873 47.536 59.754l65.29 95.187c-2.7 9.967-7.4 23.187-11.37 32.834-9.28 22.603-15.49 51.363-25.77 72.966-6.211 20.881-48.628 133.523-48.473 147.128-2.672-1.103-.718-.109-2.672-1.362-14.245-9.136-104.054-64.28-112.193-66.267.846-6.706 6.87-28.469 8.717-35.799l19.716-77.663a12306 12306 0 0 1 37.175-145.387c2.807-10.947 18.221-76.402 22.044-81.391"/><path fill="rgb(79,159,139)" d="M1321.26 1030.01c31.93.4 55.78-3.22 87.35-7.06l92.82-11.42c28.8-3.56 90.24-14.078 115.1-6.7l1.91 1.15c6.04 4.23 10.9 8.6 15.63 14.26 14.26 17.09 108.93 147.94 110.75 160.28.39 2.63-.1 4.91-1.69 7.07-2.01 2.74-4.68 3.79-7.96 4.01-12.68.87-27.52-4.43-39.78-7.43a6297 6297 0 0 1-67.62-16.85c-9-2.3-26.44-7.4-35.07-8.87-18.75-6.01-36.26-9.88-53.36 2.67-2.87 3.23-10.1 11.15-12.11 14.41-14.42 23.41-32.79 75.06-51.5 92.64-6.52-12.86-23.26-37.76-31.77-50.53-36.21-60.36-81.69-124.92-119.99-184.48-.6-.39-2.17-2.49-2.71-3.15"/><path fill="rgb(43,113,102)" d="m1616.53 1004.83 1.91 1.15c6.04 4.23 10.9 8.6 15.63 14.26 14.26 17.09 108.93 147.94 110.75 160.28.39 2.63-.1 4.91-1.69 7.07-2.01 2.74-4.68 3.79-7.96 4.01-12.68.87-27.52-4.43-39.78-7.43a6297 6297 0 0 1-67.62-16.85c-9-2.3-26.44-7.4-35.07-8.87-18.75-6.01-36.26-9.88-53.36 2.67 5.49-15.8 22.54-46.56 30.69-63.03 3.98-9.42 12.68-25.43 17.48-35.03 9.55-19.47 19.22-38.88 29.02-58.23"/><path fill="rgb(32,98,90)" d="m1616.53 1004.83 1.91 1.15-14.29 89.07c-1.8 11.72-7.58 55.17-11.45 63.4-18.75-6.01-36.26-9.88-53.36 2.67 5.49-15.8 22.54-46.56 30.69-63.03 3.98-9.42 12.68-25.43 17.48-35.03 9.55-19.47 19.22-38.88 29.02-58.23"/><path fill="rgb(117,197,173)" d="M1321.26 1030.01c31.93.4 55.78-3.22 87.35-7.06l92.82-11.42c28.8-3.56 90.24-14.078 115.1-6.7-9.8 19.35-19.47 38.76-29.02 58.23-4.8 9.6-13.5 25.61-17.48 35.03-63.41-17.24-126.34-35.57-189.98-51.68-10.32-2.61-47.83-13.5-56.08-13.25-.6-.39-2.17-2.49-2.71-3.15"/></svg>